<?xml version="1.0" encoding="UTF-8"?>
<svg id="Layer_2" data-name="Layer 2" xmlns="http://www.w3.org/2000/svg" viewBox="0 0 578.26 264.48">
  <defs>
    <style>
      .cls-1, .cls-2 {
        fill: #ffd800;
      }

      .cls-3 {
        fill: #c8084f;
      }

      .cls-2 {
        font-family: Montserrat-ExtraBold, Montserrat;
        font-size: 11px;
        font-weight: 700;
      }

      .cls-4 {
        fill: none;
        stroke: #ffd800;
        stroke-miterlimit: 10;
        stroke-width: 1.2px;
      }
    </style>
  </defs>
  <g id="Layer_1-2" data-name="Layer 1">
    <path class="cls-1" d="M69.34,8.04v80.63h-11.52v-35.94s-46.31,0-46.31,0v35.94H0V8.04h11.52v34.67s46.31,0,46.31,0V8.04h11.52Z"/>
    <path class="cls-1" d="M131.09,68.52h-42.85s-12.2,27.37-12.2,27.37h-11.86S104.02,8.04,104.02,8.04h11.4s36.63,80.63,36.63,80.63h-12.09s-8.87-20.16-8.87-20.16ZM127.05,59.3l-17.39-39.51-17.39,39.51h34.79Z"/>
    <path class="cls-1" d="M219.55,8.04v80.63h-9.45s-48.38-60.13-48.38-60.13v60.13h-11.52V8.04h9.45s48.38,60.13,48.38,60.13V8.04h11.52Z"/>
    <path class="cls-1" d="M288.09,47.9h11.06v31.45c-3.99,3.3-8.64,5.84-13.94,7.6-5.3,1.77-10.83,2.65-16.59,2.65-8.14,0-15.48-1.79-22-5.36-6.53-3.57-11.65-8.48-15.38-14.74-3.73-6.26-5.59-13.3-5.59-21.14,0-7.83,1.86-14.9,5.59-21.2,3.72-6.3,8.87-11.21,15.44-14.74,6.57-3.53,13.96-5.3,22.17-5.3,6.45,0,12.31,1.06,17.57,3.17,5.26,2.11,9.73,5.2,13.42,9.27l-7.14,7.14c-6.45-6.22-14.25-9.33-23.38-9.33-6.14,0-11.65,1.32-16.53,3.97-4.88,2.65-8.7,6.34-11.46,11.06-2.76,4.72-4.15,10.04-4.15,15.95,0,5.84,1.38,11.12,4.15,15.84,2.76,4.72,6.58,8.43,11.46,11.12,4.88,2.69,10.35,4.03,16.41,4.03,7.22,0,13.52-1.73,18.89-5.18v-26.26Z"/>
    <path class="cls-1" d="M325.81,84.64c-6.72-3.61-11.98-8.58-15.78-14.92-3.8-6.34-5.7-13.46-5.7-21.37,0-7.91,1.9-15.03,5.7-21.37,3.8-6.34,9.06-11.31,15.78-14.92,6.72-3.61,14.26-5.41,22.63-5.41,8.37,0,15.9,1.81,22.58,5.41,6.68,3.61,11.94,8.58,15.78,14.92,3.84,6.34,5.76,13.46,5.76,21.37,0,7.91-1.92,15.03-5.76,21.37-3.84,6.34-9.1,11.31-15.78,14.92-6.68,3.61-14.21,5.41-22.58,5.41-8.37,0-15.92-1.8-22.63-5.41ZM361.35,70.88c3.84-2.19,6.85-5.24,9.04-9.16,2.19-3.92,3.28-8.37,3.28-13.36,0-4.99-1.09-9.45-3.28-13.36-2.19-3.92-5.2-6.97-9.04-9.16-3.84-2.19-8.14-3.28-12.9-3.28-4.76,0-9.06,1.09-12.9,3.28-3.84,2.19-6.85,5.24-9.04,9.16-2.19,3.92-3.28,8.37-3.28,13.36,0,4.99,1.09,9.45,3.28,13.36,2.19,3.92,5.2,6.97,9.04,9.16,3.84,2.19,8.14,3.28,12.9,3.28,4.76,0,9.06-1.09,12.9-3.28Z"/>
    <path class="cls-1" d="M478.16,0l-37.33,88.68h-22.46s-34.44-80.63-34.44-80.63h24.65s21.89,52.53,21.89,52.53L455.58,0h22.58Z"/>
    <path class="cls-1" d="M507.98,68.4h-7.37s0,20.27,0,20.27h-27.18V8.04h38.82c7.45,0,13.94,1.23,19.47,3.69,5.53,2.46,9.79,5.99,12.79,10.6,3,4.61,4.49,9.98,4.49,16.13,0,5.76-1.31,10.79-3.92,15.09-2.61,4.3-6.38,7.72-11.29,10.25l21.37,31.54h-29.03s-18.15-26.93-18.15-26.93ZM518.81,31.48c-1.84-1.65-4.61-2.48-8.29-2.48h-9.91s0,18.89,0,18.89h9.91c3.69,0,6.45-.82,8.29-2.48,1.84-1.65,2.76-3.97,2.76-6.97s-.92-5.32-2.76-6.97Z"/>
    <circle class="cls-1" cx="566.68" cy="48.38" r="11.58"/>
    <path class="cls-1" d="M224.64,136.85v81.24h-27.39v-60.58s-11.05,0-11.05,0v-20.66h38.44Z"/>
    <path class="cls-1" d="M301.09,183.21c1.9,3.13,2.84,6.71,2.84,10.74,0,5.18-1.53,9.75-4.58,13.7-3.06,3.95-7.35,6.98-12.88,9.11-5.53,2.13-11.86,3.19-18.98,3.19-7.12,0-13.45-1.06-18.98-3.19-5.53-2.13-9.83-5.16-12.88-9.11-3.06-3.95-4.58-8.51-4.58-13.7,0-4.02.95-7.6,2.84-10.74,1.9-3.13,4.58-5.78,8.07-7.95-5.34-4.25-8.01-9.59-8.01-16.02,0-4.87,1.41-9.13,4.24-12.77,2.82-3.64,6.77-6.46,11.84-8.47,5.07-2.01,10.89-3.02,17.47-3.02,6.58,0,12.4,1.01,17.47,3.02,5.07,2.01,9.01,4.84,11.84,8.47,2.82,3.64,4.24,7.89,4.24,12.77,0,6.42-2.67,11.76-8.01,16.02,3.48,2.17,6.17,4.82,8.07,7.95ZM273.93,199.17c1.66-1.55,2.49-3.6,2.49-6.15s-.83-4.6-2.49-6.15c-1.67-1.55-3.81-2.32-6.44-2.32-2.63,0-4.78.77-6.44,2.32-1.67,1.55-2.5,3.6-2.5,6.15,0,2.55.83,4.6,2.5,6.15,1.66,1.55,3.81,2.32,6.44,2.32,2.63,0,4.78-.77,6.44-2.32ZM262.79,155.3c-1.2,1.24-1.8,2.94-1.8,5.11s.6,3.87,1.8,5.11c1.2,1.24,2.77,1.86,4.7,1.86s3.5-.62,4.7-1.86c1.2-1.24,1.8-2.94,1.8-5.11s-.6-3.87-1.8-5.11c-1.2-1.24-2.77-1.86-4.7-1.86-1.94,0-3.5.62-4.7,1.86Z"/>
    <path class="cls-1" d="M328.63,214.49c-6.96-3.64-12.42-8.68-16.37-15.15-3.95-6.46-5.92-13.75-5.92-21.88,0-8.12,1.97-15.42,5.92-21.88,3.95-6.46,9.4-11.51,16.37-15.15,6.96-3.64,14.82-5.45,23.56-5.45,8.74,0,16.6,1.82,23.56,5.45,6.96,3.64,12.42,8.69,16.36,15.15,3.95,6.46,5.92,13.75,5.92,21.88,0,8.12-1.97,15.42-5.92,21.88-3.95,6.46-9.4,11.51-16.36,15.15-6.96,3.64-14.82,5.45-23.56,5.45-8.74,0-16.6-1.82-23.56-5.45ZM361.42,195.28c2.75-1.66,4.93-4.02,6.56-7.08,1.62-3.06,2.44-6.63,2.44-10.74s-.81-7.68-2.44-10.74c-1.62-3.06-3.81-5.42-6.56-7.08-2.75-1.66-5.82-2.5-9.23-2.5s-6.48.83-9.23,2.5c-2.75,1.66-4.93,4.02-6.56,7.08-1.62,3.06-2.44,6.64-2.44,10.74,0,4.1.81,7.68,2.44,10.74,1.62,3.06,3.81,5.42,6.56,7.08,2.75,1.66,5.82,2.5,9.23,2.5s6.48-.83,9.23-2.5Z"/>
    <g>
      <text class="cls-2" transform="translate(426.97 122.39)"><tspan x="0" y="0">R</tspan></text>
      <circle class="cls-4" cx="431.04" cy="118.62" r="6.37"/>
    </g>
    <path class="cls-3" d="M361.78,101.73l-214.56.86-11.37,22.87,223.55-.9c28.81-.12,52.25,23.03,52.37,51.7v.28c.12,28.67-23.14,52-51.95,52.12l-173.84.7-.07-17.18-48.74,26.34,48.95,25.95-.05-13.31,176.31-.71c40.02-.16,72.34-32.58,72.18-72.42l-.02-4.48c-.16-39.83-32.74-71.99-72.76-71.83Z"/>
  </g>
</svg>