<?xml version="1.0" encoding="UTF-8"?>
<svg id="Layer_2" data-name="Layer 2" xmlns="http://www.w3.org/2000/svg" viewBox="0 0 823.55 160.11">
  <defs>
    <style>
      .cls-1, .cls-2 {
        fill: #333b38;
      }

      .cls-3 {
        fill: #c8084f;
      }

      .cls-4 {
        fill: none;
        stroke: #333b38;
        stroke-miterlimit: 10;
        stroke-width: 1.2px;
      }

      .cls-2 {
        font-family: Montserrat-ExtraBold, Montserrat;
        font-size: 11px;
        font-weight: 700;
      }
    </style>
  </defs>
  <g id="Layer_1-2" data-name="Layer 1">
    <path class="cls-1" d="M68.27,34.33v79.38h-11.34v-35.38s-45.59,0-45.59,0v35.38H0V34.33h11.34v34.13s45.59,0,45.59,0v-34.13h11.34Z"/>
    <path class="cls-1" d="M129.05,93.86h-42.19s-12.01,26.94-12.01,26.94h-11.68s39.23-86.48,39.23-86.48h11.23s36.06,79.38,36.06,79.38h-11.91s-8.73-19.85-8.73-19.85ZM125.08,84.79l-17.12-38.9-17.12,38.9h34.25Z"/>
    <path class="cls-1" d="M216.14,34.33v79.38h-9.3s-47.63-59.2-47.63-59.2v59.2h-11.34V34.33h9.3s47.63,59.2,47.63,59.2v-59.2h11.34Z"/>
    <path class="cls-1" d="M283.62,73.56h10.89v30.96c-3.93,3.25-8.51,5.75-13.72,7.48-5.22,1.74-10.66,2.61-16.33,2.61-8.01,0-15.23-1.76-21.66-5.27-6.43-3.52-11.47-8.35-15.14-14.52-3.67-6.16-5.5-13.1-5.5-20.81,0-7.71,1.83-14.67,5.5-20.87,3.67-6.2,8.73-11.04,15.2-14.52,6.46-3.48,13.74-5.22,21.83-5.22,6.35,0,12.11,1.04,17.29,3.12,5.18,2.08,9.58,5.12,13.21,9.13l-7.03,7.03c-6.35-6.12-14.02-9.19-23.02-9.19-6.05,0-11.47,1.3-16.27,3.91-4.8,2.61-8.56,6.24-11.28,10.89-2.72,4.65-4.08,9.89-4.08,15.71s1.36,10.94,4.08,15.59c2.72,4.65,6.48,8.3,11.28,10.94,4.8,2.65,10.19,3.97,16.16,3.97,7.11,0,13.31-1.7,18.6-5.1v-25.86Z"/>
    <path class="cls-1" d="M320.75,109.74c-6.62-3.55-11.79-8.45-15.54-14.69-3.74-6.24-5.61-13.25-5.61-21.04,0-7.79,1.87-14.8,5.61-21.04,3.74-6.24,8.92-11.13,15.54-14.69,6.61-3.55,14.04-5.33,22.28-5.33,8.24,0,15.65,1.78,22.23,5.33,6.58,3.55,11.76,8.45,15.54,14.69,3.78,6.24,5.67,13.25,5.67,21.04,0,7.79-1.89,14.8-5.67,21.04-3.78,6.24-8.96,11.13-15.54,14.69-6.58,3.55-13.99,5.33-22.23,5.33-8.24,0-15.67-1.78-22.28-5.33ZM355.74,96.19c3.78-2.15,6.75-5.16,8.9-9.02,2.15-3.86,3.23-8.24,3.23-13.15s-1.08-9.3-3.23-13.15c-2.15-3.86-5.12-6.86-8.9-9.02-3.78-2.15-8.01-3.23-12.7-3.23-4.69,0-8.92,1.08-12.7,3.23-3.78,2.15-6.75,5.16-8.9,9.02-2.15,3.86-3.23,8.24-3.23,13.15s1.08,9.3,3.23,13.15c2.15,3.86,5.12,6.86,8.9,9.02,3.78,2.15,8.01,3.23,12.7,3.23,4.69,0,8.92-1.08,12.7-3.23Z"/>
    <path class="cls-1" d="M470.74,26.41l-36.75,87.3h-22.11s-33.91-79.38-33.91-79.38h24.27s21.55,51.71,21.55,51.71l24.73-59.63h22.23Z"/>
    <path class="cls-1" d="M500.1,93.75h-7.26s0,19.96,0,19.96h-26.76V34.33h38.22c7.33,0,13.72,1.21,19.16,3.63,5.44,2.42,9.64,5.9,12.59,10.43,2.95,4.54,4.42,9.83,4.42,15.88,0,5.67-1.29,10.62-3.86,14.86-2.57,4.23-6.28,7.6-11.11,10.09l21.04,31.05h-28.58s-17.86-26.51-17.86-26.51ZM510.76,57.4c-1.81-1.62-4.54-2.44-8.16-2.44h-9.75s0,18.6,0,18.6h9.75c3.63,0,6.35-.81,8.16-2.44,1.81-1.62,2.72-3.91,2.72-6.86s-.91-5.23-2.72-6.86Z"/>
    <circle class="cls-1" cx="560.54" cy="74.04" r="11.4"/>
    <path class="cls-1" d="M616.87,34.27v79.98h-26.97v-59.64s-10.88,0-10.88,0v-20.34h37.85Z"/>
    <path class="cls-1" d="M692.13,79.91c1.87,3.08,2.8,6.61,2.8,10.57,0,5.1-1.5,9.6-4.51,13.48-3.01,3.89-7.24,6.88-12.68,8.97-5.45,2.09-11.67,3.14-18.68,3.14-7.01,0-13.24-1.05-18.68-3.14-5.45-2.09-9.67-5.08-12.68-8.97-3.01-3.88-4.51-8.38-4.51-13.48,0-3.96.93-7.48,2.8-10.57,1.87-3.09,4.51-5.69,7.94-7.83-5.26-4.19-7.88-9.44-7.88-15.77,0-4.8,1.39-8.99,4.17-12.57,2.78-3.58,6.66-6.36,11.65-8.34,4.99-1.98,10.72-2.97,17.2-2.97,6.47,0,12.21.99,17.2,2.97,4.99,1.98,8.87,4.76,11.65,8.34,2.78,3.58,4.17,7.77,4.17,12.57,0,6.32-2.63,11.58-7.88,15.77,3.43,2.13,6.07,4.74,7.94,7.83ZM665.4,95.63c1.64-1.52,2.46-3.54,2.46-6.06,0-2.51-.82-4.53-2.46-6.06-1.64-1.52-3.75-2.29-6.34-2.29-2.59,0-4.7.76-6.34,2.29-1.64,1.52-2.46,3.54-2.46,6.06,0,2.51.82,4.53,2.46,6.06,1.64,1.52,3.75,2.29,6.34,2.29,2.59,0,4.7-.76,6.34-2.29ZM654.43,52.44c-1.18,1.22-1.77,2.9-1.77,5.03,0,2.13.59,3.81,1.77,5.03,1.18,1.22,2.72,1.83,4.63,1.83s3.45-.61,4.63-1.83c1.18-1.22,1.77-2.89,1.77-5.03,0-2.13-.59-3.81-1.77-5.03-1.18-1.22-2.72-1.83-4.63-1.83-1.91,0-3.45.61-4.63,1.83Z"/>
    <path class="cls-1" d="M719.24,110.71c-6.86-3.58-12.23-8.55-16.11-14.91-3.88-6.36-5.83-13.54-5.83-21.54,0-8,1.94-15.18,5.83-21.54,3.88-6.36,9.26-11.33,16.11-14.91,6.86-3.58,14.59-5.37,23.19-5.37,8.61,0,16.34,1.79,23.19,5.37,6.86,3.58,12.23,8.55,16.11,14.91,3.89,6.36,5.83,13.54,5.83,21.54,0,8-1.94,15.18-5.83,21.54-3.88,6.36-9.25,11.33-16.11,14.91-6.86,3.58-14.59,5.37-23.19,5.37-8.61,0-16.34-1.79-23.19-5.37ZM751.52,91.8c2.7-1.64,4.86-3.96,6.46-6.97,1.6-3.01,2.4-6.53,2.4-10.57,0-4.04-.8-7.56-2.4-10.57-1.6-3.01-3.75-5.33-6.46-6.97-2.7-1.64-5.73-2.46-9.08-2.46-3.35,0-6.38.82-9.08,2.46-2.7,1.64-4.86,3.96-6.46,6.97-1.6,3.01-2.4,6.53-2.4,10.57,0,4.04.8,7.56,2.4,10.57,1.6,3.01,3.75,5.33,6.46,6.97,2.7,1.64,5.73,2.46,9.08,2.46s6.38-.82,9.08-2.46Z"/>
    <path class="cls-3" d="M752.28,0h-211s-11.27,22.56-11.27,22.56h219.84c28.33,0,51.29,22.96,51.29,51.29v.28c0,28.33-22.96,51.29-51.29,51.29h-170.96v-16.98s-48.04,25.83-48.04,25.83l48.04,25.83v-13.15h173.39c39.36,0,71.27-31.91,71.27-71.27v-4.43C823.55,31.91,791.64,0,752.28,0Z"/>
    <g>
      <text class="cls-2" transform="translate(806.59 15.18)"><tspan x="0" y="0">R</tspan></text>
      <circle class="cls-4" cx="810.66" cy="11.41" r="6.37"/>
    </g>
  </g>
</svg>